<svg xmlns="http://www.w3.org/2000/svg">
<symbol id="edit" viewBox="0 -960 960 960"><path d="M186.67-186.67H235L680-631l-48.33-48.33-445 444.33v48.33zM120-120v-142l559.33-558.33q9.34-9 21.5-14 12.17-5 25.5-5 12.67 0 25 5 12.34 5 22 14.33L821-772q10 9.67 14.5 22t4.5 24.67q0 12.66-4.83 25.16-4.84 12.5-14.17 21.84L262-120H120zm652.67-606l-46-46 46 46zm-117 71l-24-24.33L680-631l-24.33-24z"/></symbol><symbol id="light-mode" viewBox="0 -960 960 960"><path d="M479.84-346.67q55.49 0 94.49-38.84 39-38.84 39-94.33 0-55.49-38.84-94.49-38.84-39-94.33-39-55.49 0-94.49 38.84-39 38.84-39 94.33 0 55.49 38.84 94.49 38.84 39 94.33 39zM480-280q-83 0-141.5-58.5T280-480q0-83 58.5-141.5T480-680q83 0 141.5 58.5T680-480q0 83-58.5 141.5T480-280zM73.33-446.67q-14.16 0-23.75-9.61Q40-465.9 40-480.12q0-14.21 9.58-23.71 9.59-9.5 23.75-9.5h93.34q14.16 0 23.75 9.61 9.58 9.62 9.58 23.84 0 14.21-9.58 23.71-9.59 9.5-23.75 9.5H73.33zm720 0q-14.16 0-23.75-9.61-9.58-9.62-9.58-23.84 0-14.21 9.58-23.71 9.59-9.5 23.75-9.5h93.34q14.16 0 23.75 9.61 9.58 9.62 9.58 23.84 0 14.21-9.58 23.71-9.59 9.5-23.75 9.5h-93.34zM479.88-760q-14.21 0-23.71-9.58-9.5-9.59-9.5-23.75v-93.34q0-14.16 9.61-23.75 9.62-9.58 23.84-9.58 14.21 0 23.71 9.58 9.5 9.59 9.5 23.75v93.34q0 14.16-9.61 23.75-9.62 9.58-23.84 9.58zm0 720q-14.21 0-23.71-9.58-9.5-9.59-9.5-23.75v-93.34q0-14.16 9.61-23.75 9.62-9.58 23.84-9.58 14.21 0 23.71 9.58 9.5 9.59 9.5 23.75v93.34q0 14.16-9.61 23.75Q494.1-40 479.88-40zM235.33-678L183-729.33q-10-9.67-9.59-23.74.42-14.07 9.52-24 9.93-9.93 24-9.93t23.74 10L282-724.67q9 10 9 23.34 0 13.33-9 23-9 9.66-22.83 9.5-13.84-.17-23.84-9.17zm494 495L678-235.33q-9-10-9-23.75t9.33-22.92q9.34-10 22.84-9.83 13.5.16 23.5 9.83L777-230.67q10 9.67 9.59 23.74-.42 14.07-9.52 24-9.93 9.93-24 9.93t-23.74-10zM678-678q-10-9.67-9.83-23.17.16-13.5 9.83-23.5L729.33-777q9.67-10 23.74-9.59 14.07.42 24 9.52 9.93 9.93 9.93 24t-10 23.74L724.67-678q-9.34 9-22.91 9-13.58 0-23.76-9zM182.93-182.93q-9.93-9.93-9.93-24t10-23.74L235.33-282q9.87-9.67 23.44-9.67 13.56 0 22.97 9.67 10.26 9.67 10.09 23.17-.16 13.5-9.83 23.5L230.67-183q-9.67 10-23.74 9.59-14.07-.42-24-9.52zM480-480z"/></symbol><symbol id="list-alt" viewBox="0 -960 960 960"><path d="M306.67-284q13.66 0 23.5-9.83 9.83-9.84 9.83-23.5 0-13.67-9.83-23.5-9.84-9.84-23.5-9.84-13.67 0-23.5 9.84-9.84 9.83-9.84 23.5 0 13.66 9.84 23.5Q293-284 306.67-284zm0-162.67q13.66 0 23.5-9.83Q340-466.33 340-480t-9.83-23.5q-9.84-9.83-23.5-9.83-13.67 0-23.5 9.83-9.84 9.83-9.84 23.5t9.84 23.5q9.83 9.83 23.5 9.83zm0-162.66q13.66 0 23.5-9.84Q340-629 340-642.67q0-13.66-9.83-23.5-9.84-9.83-23.5-9.83-13.67 0-23.5 9.83-9.84 9.84-9.84 23.5 0 13.67 9.84 23.5 9.83 9.84 23.5 9.84zM468-284h176q14.17 0 23.75-9.62 9.58-9.61 9.58-23.83 0-14.22-9.58-23.72-9.58-9.5-23.75-9.5H468q-14.17 0-23.75 9.62t-9.58 23.83q0 14.22 9.58 23.72 9.58 9.5 23.75 9.5zm0-162.67h176q14.17 0 23.75-9.61 9.58-9.62 9.58-23.84 0-14.21-9.58-23.71t-23.75-9.5H468q-14.17 0-23.75 9.61-9.58 9.62-9.58 23.84 0 14.21 9.58 23.71t23.75 9.5zm0-162.66h176q14.17 0 23.75-9.62t9.58-23.83q0-14.22-9.58-23.72-9.58-9.5-23.75-9.5H468q-14.17 0-23.75 9.62-9.58 9.61-9.58 23.83 0 14.22 9.58 23.72 9.58 9.5 23.75 9.5zM186.67-120q-27 0-46.84-19.83Q120-159.67 120-186.67v-586.66q0-27 19.83-46.84Q159.67-840 186.67-840h586.66q27 0 46.84 19.83Q840-800.33 840-773.33v586.66q0 27-19.83 46.84Q800.33-120 773.33-120H186.67zm0-66.67h586.66v-586.66H186.67v586.66zm0-586.66v586.66-586.66z"/></symbol><symbol id="home" viewBox="0 -960 960 960"><path d="M226.67-186.67h140V-400q0-14.17 9.58-23.75t23.75-9.58h160q14.17 0 23.75 9.58t9.58 23.75v213.33h140v-380L480-756.67l-253.33 190v380zm-66.67 0v-380q0-15.83 7.08-30 7.09-14.16 19.59-23.33L440-810q17.45-13.33 39.89-13.33T520-810l253.33 190q12.5 9.17 19.59 23.33 7.08 14.17 7.08 30v380q0 27.5-19.58 47.09Q760.83-120 733.33-120H560q-14.17 0-23.75-9.58-9.58-9.59-9.58-23.75v-213.34h-93.34v213.34q0 14.16-9.58 23.75Q414.17-120 400-120H226.67q-27.5 0-47.09-19.58Q160-159.17 160-186.67zM480-472z"/></symbol><symbol id="favorite" viewBox="0 -960 960 960"><path d="M480-142.33q-11.8 0-24.02-4.25-12.22-4.25-21.49-13.59l-58.16-53.5q-118-109-207.16-210.5Q80-525.67 80-640q0-91.44 61.33-152.72 61.34-61.28 152-61.28Q345-854 394-830.17q49 23.84 86 74.17 40.33-50.33 87.33-74.17 47-23.83 99.34-23.83 90.66 0 152 61.28Q880-731.44 880-640q0 114.33-89 216T583.33-213.33l-58 53.33q-9.16 9.25-21.25 13.46-12.08 4.21-24.08 4.21zm-30-543q-27.67-46.34-68-74.17t-88.67-27.83q-64 0-105.33 41.66-41.33 41.67-41.33 105.96 0 55.71 38.25 117.65 38.25 61.93 91.5 120.16T386.5-293.33q56.83 50.33 93.5 84 36.67-33 93.5-83.67t110-109.33Q736.67-461 775-522.96q38.33-61.96 38.33-117.04 0-64-41.66-105.67-41.67-41.66-105-41.66-49 0-89 27.5t-69 74.5q-5.67 8.66-13 12.66-7.34 4-16.34 4t-16.66-4q-7.67-4-12.67-12.66zm30 187z"/></symbol><symbol id="logout" viewBox="0 -960 960 960"><path d="M186.67-120q-27 0-46.84-19.83Q120-159.67 120-186.67v-586.66q0-27 19.83-46.84Q159.67-840 186.67-840h292.66v66.67H186.67v586.66h292.66V-120H186.67zm470.66-176.67l-47-48 102-102H360v-66.66h351l-102-102 47-48 184 184-182.67 182.66z"/></symbol><symbol id="person-check" viewBox="0 -960 960 960"><path d="M702-489.33L570-622l47-46.67 85 85 170-170L918.67-706 702-489.33zm-342 8.66q-66 0-109.67-43.66Q206.67-568 206.67-634t43.66-109.67Q294-787.33 360-787.33t109.67 43.66Q513.33-700 513.33-634t-43.66 109.67Q426-480.67 360-480.67zM40-160v-100q0-34.67 17.5-63.17T106.67-366q70.66-32.33 130.89-46.5 60.22-14.17 122.33-14.17T482-412.5q60 14.17 130.67 46.5 31.66 15 49.5 43.17Q680-294.67 680-260v100H40zm66.67-66.67h506.66V-260q0-14.33-7.83-27t-20.83-19q-65.34-31-116.34-42.5T360-360q-57.33 0-108.67 11.5Q200-337 134.67-306q-13 6.33-20.5 19t-7.5 27v33.33zM360-547.33q37 0 61.83-24.84Q446.67-597 446.67-634t-24.84-61.83Q397-720.67 360-720.67t-61.83 24.84Q273.33-671 273.33-634t24.84 61.83Q323-547.33 360-547.33zm0 254zM360-634z"/></symbol><symbol id="notifications" viewBox="0 -960 960 960"><path d="M193.33-200q-14.16 0-23.75-9.62-9.58-9.61-9.58-23.83 0-14.22 9.58-23.72 9.59-9.5 23.75-9.5H240v-296q0-83.66 49.67-149.5Q339.33-778 420-796v-24q0-25 17.5-42.5T480-880q25 0 42.5 17.5T540-820v24q80.67 18 130.33 83.83Q720-646.33 720-562.67v296h46.67q14.16 0 23.75 9.62 9.58 9.62 9.58 23.83 0 14.22-9.58 23.72-9.59 9.5-23.75 9.5H193.33zM480-501.33zM480-80q-33 0-56.5-23.5T400-160h160q0 33-23.5 56.5T480-80zM306.67-266.67h346.66v-296q0-72-50.66-122.66Q552-736 480-736t-122.67 50.67q-50.66 50.66-50.66 122.66v296z"/></symbol><symbol id="send" viewBox="0 -960 960 960"><path d="M806.67-449l-640 269.33Q150-173 135-182.5T120-210v-540q0-18 15-27.5t31.67-2.83l640 269.33Q827-502 827-480t-20.33 31zm-620 187l520.66-218-520.66-220v158.67L428-480l-241.33 60v158zm0 0v-438 438z"/></symbol><symbol id="person-add" viewBox="0 -960 960 960"><path d="M726.67-400v-126.67H600v-66.66h126.67V-720h66.66v126.67H920v66.66H793.33V-400h-66.66zM360-480.67q-66 0-109.67-43.66Q206.67-568 206.67-634t43.66-109.67Q294-787.33 360-787.33t109.67 43.66Q513.33-700 513.33-634t-43.66 109.67Q426-480.67 360-480.67zM40-160v-100q0-34.67 17.5-63.17T106.67-366q70.66-32.33 130.89-46.5 60.22-14.17 122.33-14.17T482-412.5q60 14.17 130.67 46.5 31.66 15 49.5 43.17Q680-294.67 680-260v100H40zm66.67-66.67h506.66V-260q0-14.33-7.83-27t-20.83-19q-65.34-31-116.34-42.5T360-360q-57.33 0-108.67 11.5Q200-337 134.67-306q-13 6.33-20.5 19t-7.5 27v33.33zM360-547.33q37 0 61.83-24.84Q446.67-597 446.67-634t-24.84-61.83Q397-720.67 360-720.67t-61.83 24.84Q273.33-671 273.33-634t24.84 61.83Q323-547.33 360-547.33zm0-86.67zm0 407.33z"/></symbol><symbol id="password" viewBox="0 -960 960 960"><path d="M80-200v-67.33h800V-200H80zm40.67-250l-44-24.67 38-65.33H40v-50h74.67l-38-64.67 44-24.66 36.66 64 36.67-64 44 24.66L200-590h74.67v50H200l38 65.33L194-450l-36.67-64.67L120.67-450zm322.66 0l-44-26 38-65.33h-74.66v-50h74.66l-38-64.67 44-24.67 36.67 64 36.67-64 44 24.67-38 64.67h74.66v50h-74.66l38 65.33-44 26L480-514.67 443.33-450zM766-450l-44-26 38-65.33h-74.67v-50H760L722-656l44-24.67 36.67 64 36.66-64 44 24.67-38 64.67H920v50h-74.67l38 65.33-44 26-36.66-64.67L766-450z"/></symbol><symbol id="add" viewBox="0 -960 960 960"><path d="M446.67-446.67H233.33q-14.16 0-23.75-9.61-9.58-9.62-9.58-23.84 0-14.21 9.58-23.71 9.59-9.5 23.75-9.5h213.34v-213.34q0-14.16 9.61-23.75 9.62-9.58 23.84-9.58 14.21 0 23.71 9.58 9.5 9.59 9.5 23.75v213.34h213.34q14.16 0 23.75 9.61 9.58 9.62 9.58 23.84 0 14.21-9.58 23.71-9.59 9.5-23.75 9.5H513.33v213.34q0 14.16-9.61 23.75-9.62 9.58-23.84 9.58-14.21 0-23.71-9.58-9.5-9.59-9.5-23.75v-213.34z"/></symbol><symbol id="favorite-fill" viewBox="0 -960 960 960"><path d="M480-142.33q-12 0-24.17-4.34Q443.67-151 434.67-160l-58.34-53.67q-118-109-207.16-210.5Q80-525.67 80-640q0-91.33 61.33-152.67 61.34-61.33 152-61.33Q345-854 394-830.17q49 23.84 86 74.17 40.33-50.33 87.33-74.17 47-23.83 99.34-23.83 90.66 0 152 61.33Q880-731.33 880-640q0 114.33-89 216T583.33-213.33l-58 53.33q-9 9-21.16 13.33-12.17 4.34-24.17 4.34z"/></symbol><symbol id="add-box" viewBox="0 -960 960 960"><path d="M446.67-446.67v133.34q0 14.16 9.61 23.75 9.62 9.58 23.84 9.58 14.21 0 23.71-9.58 9.5-9.59 9.5-23.75v-133.34h133.34q14.16 0 23.75-9.61 9.58-9.62 9.58-23.84 0-14.21-9.58-23.71-9.59-9.5-23.75-9.5H513.33v-133.34q0-14.16-9.61-23.75-9.62-9.58-23.84-9.58-14.21 0-23.71 9.58-9.5 9.59-9.5 23.75v133.34H313.33q-14.16 0-23.75 9.61-9.58 9.62-9.58 23.84 0 14.21 9.58 23.71 9.59 9.5 23.75 9.5h133.34zM186.67-120q-27 0-46.84-19.83Q120-159.67 120-186.67v-586.66q0-27 19.83-46.84Q159.67-840 186.67-840h586.66q27 0 46.84 19.83Q840-800.33 840-773.33v586.66q0 27-19.83 46.84Q800.33-120 773.33-120H186.67zm0-66.67h586.66v-586.66H186.67v586.66zm0-586.66v586.66-586.66z"/></symbol><symbol id="chat-bubble" viewBox="0 -960 960 960"><path d="M80-80v-733.33q0-27 19.83-46.84Q119.67-880 146.67-880h666.66q27 0 46.84 19.83Q880-840.33 880-813.33v506.66q0 27-19.83 46.84Q840.33-240 813.33-240H240L80-80zm131.33-226.67h602v-506.66H146.67v575l64.66-68.34zm-64.66 0v-506.66 506.66z"/></symbol><symbol id="chat" viewBox="0 -960 960 960"><path d="M240-240L136.67-136.67Q121-121 100.5-129.6 80-138.21 80-160.33v-653q0-27 19.83-46.84Q119.67-880 146.67-880h666.66q27 0 46.84 19.83Q880-840.33 880-813.33v506.66q0 27-19.83 46.84Q840.33-240 813.33-240H240zm-28.67-66.67h602v-506.66H146.67v575l64.66-68.34zm-64.66 0v-506.66 506.66zm126.66-92.66H522q14.17 0 23.75-9.62t9.58-23.83q0-14.22-9.58-23.72-9.58-9.5-23.75-9.5H273.33q-14.16 0-23.75 9.62-9.58 9.61-9.58 23.83 0 14.22 9.58 23.72 9.59 9.5 23.75 9.5zm0-126.67h413.34q14.16 0 23.75-9.62 9.58-9.61 9.58-23.83 0-14.22-9.58-23.72-9.59-9.5-23.75-9.5H273.33q-14.16 0-23.75 9.62-9.58 9.62-9.58 23.83 0 14.22 9.58 23.72 9.59 9.5 23.75 9.5zm0-126.67h413.34q14.16 0 23.75-9.61 9.58-9.62 9.58-23.84 0-14.21-9.58-23.71-9.59-9.5-23.75-9.5H273.33q-14.16 0-23.75 9.61-9.58 9.62-9.58 23.84 0 14.21 9.58 23.71 9.59 9.5 23.75 9.5z"/></symbol><symbol id="chevron-left" viewBox="0 -960 960 960"><path d="M414.67-480.67l170 170q9.66 9.67 9.33 23.34-.33 13.66-10 23.33-9.67 9.67-23.67 9.67-14 0-23.66-9.67L343.33-457.33q-5.33-5.34-7.5-11-2.16-5.67-2.16-12.34 0-6.66 2.16-12.33 2.17-5.67 7.5-11l194-194q9.67-9.67 23.67-9.67 14 0 23.67 9.67 9.66 9.67 9.66 23.67 0 14-9.66 23.66l-170 170z"/></symbol><symbol id="person" viewBox="0 -960 960 960"><path d="M480-480.67q-66 0-109.67-43.66Q326.67-568 326.67-634t43.66-109.67Q414-787.33 480-787.33t109.67 43.66Q633.33-700 633.33-634t-43.66 109.67Q546-480.67 480-480.67zm-320 254V-260q0-36.67 18.5-64.17T226.67-366q65.33-30.33 127.66-45.5 62.34-15.17 125.67-15.17t125.33 15.5q62 15.5 127.28 45.3 30.54 14.42 48.96 41.81Q800-296.67 800-260v33.33q0 27.5-19.58 47.09Q760.83-160 733.33-160H226.67q-27.5 0-47.09-19.58Q160-199.17 160-226.67zm66.67 0h506.66V-260q0-14.33-8.16-27-8.17-12.67-20.5-19-60.67-29.67-114.34-41.83Q536.67-360 480-360t-111 12.17Q314.67-335.67 254.67-306q-12.34 6.33-20.17 19-7.83 12.67-7.83 27v33.33zM480-547.33q37 0 61.83-24.84Q566.67-597 566.67-634t-24.84-61.83Q517-720.67 480-720.67t-61.83 24.84Q393.33-671 393.33-634t24.84 61.83Q443-547.33 480-547.33zm0-86.67zm0 407.33z"/></symbol><symbol id="close" viewBox="0 -960 960 960"><path d="M480-433.33L274.67-228q-9.67 9.67-23.34 9.67-13.66 0-23.33-9.67-9.67-9.67-9.67-23.33 0-13.67 9.67-23.34L433.33-480 228-685.33q-9.67-9.67-9.67-23.34 0-13.66 9.67-23.33 9.67-9.67 23.33-9.67 13.67 0 23.34 9.67L480-526.67 685.33-732q9.67-9.67 23.34-9.67 13.66 0 23.33 9.67 9.67 9.67 9.67 23.33 0 13.67-9.67 23.34L526.67-480 732-274.67q9.67 9.67 9.67 23.34 0 13.66-9.67 23.33-9.67 9.67-23.33 9.67-13.67 0-23.34-9.67L480-433.33z"/></symbol><symbol id="dark-mode" viewBox="0 -960 960 960"><path d="M480-120q-150.33 0-255.17-104.83Q120-329.67 120-480q0-136 83-232.5t215.67-120.17q17.66-4 30.33.5 12.67 4.5 20 14.84 7.33 9.66 7.17 23.66-.17 14-8.17 31-11.67 24-17.83 49.67-6.17 25.67-6.17 53 0 90 63 153t153 63q27 0 52.83-6 25.84-6 48.5-16.67 18.34-7.66 32.84-6.83 14.5.83 24.16 7.83 10 7 13.84 20.34 3.83 13.33-.17 32-22.67 126.66-119.83 210Q615-120 480-120zm0-66.67q102 0 179.33-61.16Q736.67-309 760.67-395.67q-23.34 9-49 13.67-25.67 4.67-51.67 4.67-117.67 0-200.17-82.5-82.5-82.5-82.5-200.17 0-22.67 4.34-47.67 4.33-25 14.66-55-91.33 28.67-150.5 107-59.16 78.34-59.16 175.67 0 122 85.66 207.67Q358-186.67 480-186.67zm-6-288z"/></symbol><symbol id="search" viewBox="0 -960 960 960"><path d="M378.67-326q-108.44 0-183.56-75.17Q120-476.33 120-583.33t75.17-182.17q75.16-75.17 182.5-75.17 107.33 0 182.16 75.17 74.84 75.17 74.84 182.27 0 43.23-14 82.9-14 39.66-40.67 73l236 234.66q9.67 9.37 9.67 23.86 0 14.48-9.67 24.14-9.67 9.67-24.15 9.67-14.48 0-23.85-9.67L532.67-380q-30 25.33-69.64 39.67Q423.39-326 378.67-326zm-.67-66.67q79.17 0 134.58-55.83Q568-504.33 568-583.33q0-79-55.42-134.84Q457.17-774 378-774q-79.72 0-135.53 55.83-55.8 55.84-55.8 134.84t55.8 134.83q55.81 55.83 135.53 55.83z"/></symbol><symbol id="delete" viewBox="0 -960 960 960"><path d="M267.33-120q-27.5 0-47.08-19.58-19.58-19.59-19.58-47.09V-740h-7.34q-14.16 0-23.75-9.62-9.58-9.61-9.58-23.83 0-14.22 9.58-23.72 9.59-9.5 23.75-9.5H352q0-14.33 9.58-23.83 9.59-9.5 23.75-9.5h189.34q14.16 0 23.75 9.58 9.58 9.59 9.58 23.75h158.67q14.16 0 23.75 9.62 9.58 9.62 9.58 23.83 0 14.22-9.58 23.72-9.59 9.5-23.75 9.5h-7.34v553.33q0 27.5-19.58 47.09Q720.17-120 692.67-120H267.33zm425.34-620H267.33v553.33h425.34V-740zM398.12-270.67q14.21 0 23.71-9.58t9.5-23.75v-319.33q0-14.17-9.61-23.75-9.62-9.59-23.84-9.59-14.21 0-23.71 9.59-9.5 9.58-9.5 23.75V-304q0 14.17 9.61 23.75 9.62 9.58 23.84 9.58zm164 0q14.21 0 23.71-9.58t9.5-23.75v-319.33q0-14.17-9.61-23.75-9.62-9.59-23.84-9.59-14.21 0-23.71 9.59-9.5 9.58-9.5 23.75V-304q0 14.17 9.61 23.75 9.62 9.58 23.84 9.58zM267.33-740v553.33V-740z"/></symbol></svg>